<?xml version="1.0" standalone="no"?><!DOCTYPE svg PUBLIC "-//W3C//DTD SVG 1.1//EN" "http://www.w3.org/Graphics/SVG/1.1/DTD/svg11.dtd"><svg t="1639396471402" class="icon" viewBox="0 0 1024 1024" version="1.1" xmlns="http://www.w3.org/2000/svg" p-id="3682" xmlns:xlink="http://www.w3.org/1999/xlink" width="128" height="128"><defs><style type="text/css"></style></defs><path d="M873.7 382.1L644.2 152.6C608 116.4 560.5 98.3 513 98.3s-94.9 18.1-131.2 54.3L152.3 382.1c-72.4 72.4-72.4 189.9 0 262.3l229.5 229.5c36.2 36.2 83.7 54.3 131.2 54.3s94.9-18.1 131.2-54.3l229.5-229.5c72.4-72.4 72.4-189.9 0-262.3zM837 607.7L607.5 837.2c-25.2 25.2-58.8 39.1-94.5 39.1s-69.2-13.9-94.5-39.1L189 607.7c-52.1-52.1-52.1-136.8 0-188.9l229.5-229.5c25.2-25.2 58.8-39.1 94.5-39.1s69.2 13.9 94.5 39.1L837 418.8c25.2 25.2 39.1 58.8 39.1 94.5s-13.9 69.2-39.1 94.4z" p-id="3683"></path><path d="M539 357.5h-51.9v129.8H357.3v51.9h129.8v129.7H539V539.2h129.7v-51.9H539z" p-id="3684"></path></svg>