<?xml version="1.0" standalone="no"?><!DOCTYPE svg PUBLIC "-//W3C//DTD SVG 1.1//EN" "http://www.w3.org/Graphics/SVG/1.1/DTD/svg11.dtd"><svg t="1630141515616" class="icon" viewBox="0 0 1024 1024" version="1.1" xmlns="http://www.w3.org/2000/svg" p-id="4842" xmlns:xlink="http://www.w3.org/1999/xlink" width="200" height="200"><defs><style type="text/css"></style></defs><path d="M691.5584 907.8272h-376.832c-115.7632 0-209.92-94.1568-209.92-209.92v-376.832c0-115.7632 94.1568-209.92 209.92-209.92h376.832c115.7632 0 209.92 94.1568 209.92 209.92v376.832c0 115.7632-94.208 209.92-209.92 209.92zM314.6752 162.3552c-87.5008 0-158.72 71.2192-158.72 158.72v376.832c0 87.5008 71.2192 158.72 158.72 158.72h376.832c87.5008 0 158.72-71.2192 158.72-158.72v-376.832c0-87.5008-71.2192-158.72-158.72-158.72h-376.832z" fill="#888888" p-id="4843"></path><path d="M418.7648 694.784c-13.2096 0-26.368-3.4816-38.4-10.3936-24.064-13.8752-38.4-38.7584-38.4-66.5088V411.2384c0-27.7504 14.336-52.6336 38.4-66.5088 24.064-13.8752 52.736-13.8752 76.8 0l178.944 103.3216c24.064 13.8752 38.4 38.7584 38.4 66.5088s-14.336 52.6336-38.4 66.5088l-178.944 103.3216c-12.032 6.912-25.2416 10.3936-38.4 10.3936z m0.1024-309.248c-5.888 0-10.5984 2.1504-12.9024 3.5328-3.84 2.2016-12.8 8.8064-12.8 22.1696v206.6432c0 13.3632 8.96 19.968 12.8 22.1696s14.0288 6.656 25.6 0l178.944-103.3216c11.5712-6.656 12.8-17.7152 12.8-22.1696 0-4.4544-1.2288-15.5136-12.8-22.1696L431.5648 389.0688c-4.5568-2.6112-8.8576-3.5328-12.6976-3.5328z" fill="#888888" p-id="4844"></path></svg>