<?xml version="1.0" standalone="no"?><!DOCTYPE svg PUBLIC "-//W3C//DTD SVG 1.1//EN" "http://www.w3.org/Graphics/SVG/1.1/DTD/svg11.dtd"><svg t="1629991337967" class="icon" viewBox="0 0 1024 1024" version="1.1" xmlns="http://www.w3.org/2000/svg" p-id="2279" xmlns:xlink="http://www.w3.org/1999/xlink" width="200" height="200"><defs><style type="text/css"></style></defs><path d="M238.933333 546.133333h204.8v-204.8H238.933333v204.8z m0 68.266667v204.8h204.8v-204.8H238.933333z m273.066667-68.266667h202.513067C752.298667 546.133333 785.066667 573.474133 785.066667 610.6112v212.3776C785.066667 860.16 752.264533 887.466667 714.513067 887.466667H204.8a34.133333 34.133333 0 0 1-34.133333-34.133334V307.2a34.133333 34.133333 0 0 1 34.133333-34.133333h273.066667a34.133333 34.133333 0 0 1 34.133333 34.133333v238.933333z m0 68.266667v204.8h202.513067c1.9456 0 2.2528 0.1024 2.286933 1.8432v-208.4864c-0.034133 1.706667-0.341333 1.8432-2.286933 1.8432H512z m136.533333-375.466667v170.666667h170.666667V238.933333h-170.666667z m-34.133333-68.266666h238.933333a34.133333 34.133333 0 0 1 34.133334 34.133333v238.933333a34.133333 34.133333 0 0 1-34.133334 34.133334h-238.933333a34.133333 34.133333 0 0 1-34.133333-34.133334V204.8a34.133333 34.133333 0 0 1 34.133333-34.133333z" p-id="2280"></path></svg>