<?xml version="1.0" standalone="no"?><!DOCTYPE svg PUBLIC "-//W3C//DTD SVG 1.1//EN" "http://www.w3.org/Graphics/SVG/1.1/DTD/svg11.dtd"><svg t="1638841922357" class="icon" viewBox="0 0 1024 1024" version="1.1" xmlns="http://www.w3.org/2000/svg" p-id="2334" xmlns:xlink="http://www.w3.org/1999/xlink" width="128" height="128"><defs><style type="text/css"></style></defs><path d="M1008.64 993.28h-117.76v-460.8c0-8.704-6.656-15.36-15.36-15.36s-15.36 6.656-15.36 15.36v460.8h-150.016v-209.92c0-8.704-6.656-15.36-15.36-15.36s-15.36 6.656-15.36 15.36v209.92h-150.016v-250.88c0-8.704-6.656-15.36-15.36-15.36s-15.36 6.656-15.36 15.36v250.88H349.696v-296.96c0-8.704-6.656-15.36-15.36-15.36s-15.36 6.656-15.36 15.36v296.96H168.96v-174.08c0-8.704-6.656-15.36-15.36-15.36s-15.36 6.656-15.36 15.36v174.08H30.72V107.52c0-8.704-6.656-15.36-15.36-15.36s-15.36 6.656-15.36 15.36v901.12c0 8.192 6.656 15.36 15.36 15.36h993.28c8.704 0 15.36-7.168 15.36-15.36 0-8.704-6.656-15.36-15.36-15.36z" p-id="2335"></path><path d="M153.6 450.56c3.584 0 7.168-1.536 10.24-4.096l169.984-155.136 168.96 125.44c2.56 2.048 5.12 3.072 8.192 3.072l184.32 10.24c5.12 0.512 10.24-2.048 13.312-6.656l179.2-256c5.12-7.168 3.072-16.384-3.584-21.504-7.168-5.12-16.384-3.072-21.504 3.584l-174.08 248.832-171.008-9.728-175.616-129.536c-6.144-4.608-14.336-4.096-19.456 1.024l-179.2 163.84c-6.144 5.632-6.656 15.36-1.024 21.504 3.072 3.584 7.168 5.12 11.264 5.12z" p-id="2336"></path></svg>