<?xml version="1.0" standalone="no"?><!DOCTYPE svg PUBLIC "-//W3C//DTD SVG 1.1//EN" "http://www.w3.org/Graphics/SVG/1.1/DTD/svg11.dtd"><svg t="1630141549716" class="icon" viewBox="0 0 1024 1024" version="1.1" xmlns="http://www.w3.org/2000/svg" p-id="5752" xmlns:xlink="http://www.w3.org/1999/xlink" width="200" height="200"><defs><style type="text/css"></style></defs><path d="M433 119c128.682 0 233 104.318 233 233 0 83.088-43.49 156.017-108.949 197.267v-0.011c79.695 33.428 144.49 95.338 181.65 172.995L887.316 509.32c10.115-14.492 30.063-18.04 44.556-7.926 14.347 10.014 17.968 29.665 8.225 44.12l-0.3 0.436-170.556 244.365a32.089 32.089 0 0 1-4.944 5.579C769.995 821.013 773 847.155 773 874c0 17.673-14.327 32-32 32-17.496 0-31.713-14.042-31.996-31.47L709 874c0-159.058-128.942-288-288-288-157.467 0-285.418 126.376-287.961 283.237L133 874c0 17.673-14.327 32-32 32-17.673 0-32-14.327-32-32 0-151.898 96.214-281.324 231.023-330.66l-0.003 0.01C239.565 501.259 200 431.25 200 352c0-128.682 104.318-233 233-233z m0 64c-93.336 0-169 75.664-169 169s75.664 169 169 169 169-75.664 169-169-75.664-169-169-169z m489 98c17.673 0 32 14.327 32 32 0 17.496-14.042 31.713-31.47 31.996L922 345H802c-17.673 0-32-14.327-32-32 0-17.496 14.042-31.713 31.47-31.996L802 281h120z m0-141c17.673 0 32 14.327 32 32 0 17.496-14.042 31.713-31.47 31.996L922 204H718c-17.673 0-32-14.327-32-32 0-17.496 14.042-31.713 31.47-31.996L718 140h204z" p-id="5753"></path></svg>