<?xml version="1.0" standalone="no"?><!DOCTYPE svg PUBLIC "-//W3C//DTD SVG 1.1//EN" "http://www.w3.org/Graphics/SVG/1.1/DTD/svg11.dtd"><svg t="1629991423391" class="icon" viewBox="0 0 1024 1024" version="1.1" xmlns="http://www.w3.org/2000/svg" p-id="3125" xmlns:xlink="http://www.w3.org/1999/xlink" width="200" height="200"><defs><style type="text/css"></style></defs><path d="M204 720c26.245 0 47.57 21.063 47.994 47.206L252 768v0.512c0 26.51-21.49 48-48 48-26.245 0-47.57-21.063-47.994-47.206l-0.006-0.794V768c0-26.51 21.49-48 48-48z m632.333 16c17.673 0 32 14.327 32 32 0 17.496-14.041 31.713-31.47 31.996l-0.53 0.004H367c-17.673 0-32-14.327-32-32 0-17.496 14.042-31.713 31.47-31.996L367 736h469.333zM204 464c26.245 0 47.57 21.063 47.994 47.206L252 512v0.512c0 26.51-21.49 48-48 48-26.245 0-47.57-21.063-47.994-47.206l-0.006-0.794V512c0-26.51 21.49-48 48-48z m632 16c17.673 0 32 14.327 32 32 0 17.496-14.042 31.713-31.47 31.996L836 544H366.667c-17.673 0-32-14.327-32-32 0-17.496 14.041-31.713 31.47-31.996l0.53-0.004H836zM204 208c26.245 0 47.57 21.063 47.994 47.206L252 256v0.512c0 26.51-21.49 48-48 48-26.245 0-47.57-21.063-47.994-47.206l-0.006-0.794V256c0-26.51 21.49-48 48-48z m632 16c17.673 0 32 14.327 32 32 0 17.496-14.042 31.713-31.47 31.996L836 288H366.667c-17.673 0-32-14.327-32-32 0-17.496 14.041-31.713 31.47-31.996l0.53-0.004H836z" p-id="3126"></path></svg>